PathFileType	4	(X/Y/Z)	C:\Users\Basilio\Documents\Thesis Gigler\squatting_fais\c3dfiles\058\SLS_back_pre2\markers_experimental.trc
DataRate	CameraRate	NumFrames	NumMarkers	Units	OrigDataRate	OrigDataStartFrame	OrigNumFrames
200.000000	200.000000	4	61	mm	200.000000	929	1487
Frame#	Time	FHD			LBHD			RBHD			C7			T10			CLAV			LSHO			LUUPA			LMUPA			LDUPA			LLEP			LMEP			LUL			LRFIN			RSHO			RUPA1			RMUPA			RDUPA			RLEP			RMEP			RRAD			RUL			RUFIN			LASI			RASI			USACR			LSACR			RSACR			LTHI1			LTHI2			LTHI3			LTHI4			LLFC			LMFC			LTIB1			LTIB2			LTIB3			LTIB4			LLMAL			LMMAL			LHEE			LMT1			LMT5			RTHI			RTHI2			RTHI3			RTHI4			RLFC			RMFC			RTIB1			RTIB2			RTIB3			RTIB4			RLMAL			RMMAL			RHEE			RMT1			RMT2			RMT5			LRAD			LMT2			
		X1	Y1	Z1	X2	Y2	Z2	X3	Y3	Z3	X4	Y4	Z4	X5	Y5	Z5	X6	Y6	Z6	X7	Y7	Z7	X8	Y8	Z8	X9	Y9	Z9	X10	Y10	Z10	X11	Y11	Z11	X12	Y12	Z12	X13	Y13	Z13	X14	Y14	Z14	X15	Y15	Z15	X16	Y16	Z16	X17	Y17	Z17	X18	Y18	Z18	X19	Y19	Z19	X20	Y20	Z20	X21	Y21	Z21	X22	Y22	Z22	X23	Y23	Z23	X24	Y24	Z24	X25	Y25	Z25	X26	Y26	Z26	X27	Y27	Z27	X28	Y28	Z28	X29	Y29	Z29	X30	Y30	Z30	X31	Y31	Z31	X32	Y32	Z32	X33	Y33	Z33	X34	Y34	Z34	X35	Y35	Z35	X36	Y36	Z36	X37	Y37	Z37	X38	Y38	Z38	X39	Y39	Z39	X40	Y40	Z40	X41	Y41	Z41	X42	Y42	Z42	X43	Y43	Z43	X44	Y44	Z44	X45	Y45	Z45	X46	Y46	Z46	X47	Y47	Z47	X48	Y48	Z48	X49	Y49	Z49	X50	Y50	Z50	X51	Y51	Z51	X52	Y52	Z52	X53	Y53	Z53	X54	Y54	Z54	X55	Y55	Z55	X56	Y56	Z56	X57	Y57	Z57	X58	Y58	Z58	X59	Y59	Z59	X60	Y60	Z60	X61	Y61	Z61	

930	4.645	-110.59765625	1576.027465820313	-636.0483398437501	-267.2362365722657	1533.61474609375	-715.7875976562501	-93.51892089843751	1582.852416992188	-778.4399414062502	-290.3865661621094	1391.333862304688	-733.8549194335939	-383.8245849609376	1107.94287109375	-722.9050292968751	-143.2197723388672	1316.782104492188	-709.2112426757814	-142.380111694336	1375.288818359375	-859.380798339844	9.316827774047853	1307.96826171875	-961.2630004882815	33.8360939025879	1344.20947265625	-934.0030517578127	77.81545257568361	1306.215698242188	-948.724548339844	151.7638092041016	1308.841552734375	-927.594421386719	153.2615814208985	1252.66015625	-893.588806152344	418.3484497070314	1340.37890625	-887.203308105469	507.0420227050782	1349.755615234375	-801.3560180664065	-166.5766143798828	1385.332275390625	-566.4578247070314	-20.89481353759766	1299.35986328125	-451.9559936523439	3.868516921997071	1335.141235351563	-477.4056091308595	48.29319381713869	1304.736938476563	-452.6418762207032	116.2713241577149	1293.596069335938	-458.3372802734376	122.8891830444336	1232.83935546875	-506.9320678710939	388.2841186523439	1316.98388671875	-550.1675415039064	385.6725158691407	1331.458740234375	-468.372283935547	474.5310668945314	1351.731689453125	-537.7906494140626	-276.8716125488282	856.3829345703127	-836.2612304687502	-273.7490844726563	876.7910766601565	-599.4291381835939	-435.3804931640626	1002.116333007813	-715.3834228515626	-450.2581481933595	971.3922119140627	-741.1480712890626	-451.3707885742189	975.9014282226565	-682.7965698242189	-341.0818786621094	600.6348266601564	-934.1601562500002	-310.9742126464844	520.7224731445314	-941.7944946289065	-267.1146545410157	516.4868164062501	-917.6895141601565	-342.3368835449219	468.0324096679689	-940.2512817382815	-361.7491149902344	389.8675231933595	-934.0672607421877	-339.1647949218751	356.5495910644532	-805.595153808594	-458.786590576172	305.1750183105469	-895.6682128906252	-508.9512023925782	368.1721801757813	-929.550964355469	-510.319305419922	325.3891601562501	-919.8999633789065	-587.5440673828126	312.6086730957032	-886.1428222656252	-781.7322998046877	371.7270507812501	-863.994323730469	-756.2861938476564	325.8452758789063	-785.762634277344	-751.3169555664064	422.8511962890626	-804.7927246093752	-888.5485839843752	253.8595275878907	-767.2479858398439	-918.3516845703127	315.2006225585938	-850.769470214844	-304.8505249023438	696.5679931640626	-538.3365478515626	-242.2721557617188	673.3439331054689	-548.6264648437501	-215.5189971923829	691.0413208007814	-553.2530517578126	-224.625717163086	595.7175292968751	-574.4983520507814	-140.7998504638672	462.3366088867189	-621.3605346679689	-127.5051879882813	477.3720703125001	-754.0781250000001	-183.6353149414063	296.6552124023438	-735.7433471679689	-247.8704986572266	235.2037048339844	-668.5799560546876	-225.5582885742188	220.2657623291016	-708.4644775390626	-259.3523864746094	193.5864868164063	-745.6548461914064	-359.4046325683594	115.3380813598633	-701.4459838867189	-329.4154357910157	138.9489288330078	-789.1225585937502	-437.3960266113282	104.4293518066407	-765.8530273437501	-227.5905456542969	59.08336639404298	-776.7073974609377	-224.830551147461	56.87856292724611	-723.9484252929689	-273.6954956054688	27.64462852478028	-672.8308105468751	410.6800231933595	1317.352294921875	-809.5195312500002	-912.0639648437502	255.534896850586	-805.9647216796877	
931	4.65	-110.1747665405274	1575.404663085938	-636.0356445312501	-266.4686889648438	1532.647338867188	-715.8511352539064	-93.08721923828126	1582.119995117188	-778.3079833984377	-290.0503845214844	1390.79541015625	-733.8652343750001	-383.7915954589844	1107.531982421875	-722.8385009765626	-142.9687042236328	1315.930908203125	-709.1776123046876	-142.0946044921875	1374.667846679688	-859.239685058594	9.461674690246584	1307.059204101563	-961.1193847656252	34.24050903320313	1343.319580078125	-934.037780761719	78.2949905395508	1305.37890625	-948.7713623046877	152.1122283935547	1308.054077148438	-927.5778808593752	153.3561248779297	1251.690795898438	-893.3067016601565	418.5989685058595	1339.489990234375	-887.2596435546877	507.3438720703126	1348.969848632813	-801.2916259765627	-166.2322540283203	1384.533447265625	-566.5063476562501	-20.73688697814942	1298.341186523438	-451.8457946777345	3.842273473739625	1334.2861328125	-477.4326782226564	48.46566009521486	1303.751586914063	-452.6683959960939	116.5742416381836	1292.759765625	-458.2557983398439	123.1063385009766	1231.990600585938	-506.711639404297	388.935516357422	1316.188842773438	-550.5265502929689	386.1844787597657	1330.739379882813	-468.390350341797	474.4285888671876	1350.9453125	-538.2335205078126	-276.5751953125001	855.695251464844	-836.2955322265627	-274.1154479980469	876.3494873046877	-599.3308105468751	-435.3682556152345	1001.310913085938	-715.4204711914064	-450.3814392089845	970.833923339844	-741.1642456054689	-450.8469238281251	975.0252075195315	-683.0408325195314	-341.2969360351563	600.0155029296876	-934.1694335937502	-311.2360534667969	520.0473022460939	-941.8679199218752	-267.2940368652344	515.6936645507814	-917.742126464844	-342.5892028808594	467.3457946777345	-940.1448974609377	-361.9161987304688	389.2081298828126	-933.8730468750002	-339.2471923828126	356.0125122070313	-805.636169433594	-458.8636169433595	303.9937744140626	-895.3757934570315	-509.2687988281251	367.3226623535157	-929.423522949219	-510.4951782226564	324.5108032226563	-919.8585205078127	-587.3729248046876	311.3348999023438	-885.819519042969	-781.7932739257815	370.8478393554688	-863.5344238281252	-756.3881225585939	324.5656127929688	-785.6325683593752	-751.3979492187501	421.7863159179689	-804.537780761719	-888.7250976562502	252.7189941406251	-767.0222778320314	-919.0130615234377	314.5083923339844	-850.4659423828127	-304.9111938476563	696.3442382812501	-538.1656494140626	-242.250473022461	673.0567626953126	-548.5204467773439	-215.5025634765626	690.9169311523439	-553.2172851562501	-224.6501617431641	595.4385375976564	-574.2664794921876	-140.6253814697266	462.2973632812501	-621.2420043945314	-127.2867126464844	477.2630920410157	-753.8662719726564	-183.4804382324219	296.5915832519532	-735.5705566406251	-247.8256225585938	235.2423858642579	-668.3950195312501	-225.470932006836	220.2666778564454	-708.3646240234376	-259.0882568359376	193.6038360595704	-745.5858154296876	-359.4230651855469	115.3256988525391	-701.4063110351564	-329.4172363281251	138.959716796875	-789.024597167969	-437.3898925781251	104.4290313720703	-765.8348999023439	-227.5536346435547	59.13006973266603	-776.606384277344	-224.9175109863282	56.76440429687501	-723.9501342773439	-273.7089538574219	27.63521003723145	-672.8562011718751	410.8053588867189	1316.657836914063	-809.5494384765627	-912.4459228515627	254.6446228027344	-805.7687988281252	
932	4.655	-109.7675323486328	1574.95068359375	-636.0057983398439	-266.1727294921876	1532.026489257813	-715.8231811523439	-92.75704193115236	1581.122192382813	-778.3055419921877	-289.7637939453126	1390.00634765625	-733.7000732421876	-383.6336364746094	1106.839965820313	-722.8092041015626	-142.5248718261719	1315.203002929688	-709.0614624023439	-141.7120819091797	1373.717651367188	-859.2112426757815	9.735366821289064	1306.1298828125	-961.1243286132815	34.3601188659668	1342.465576171875	-933.8955688476565	78.55891418457033	1304.52294921875	-948.638122558594	152.2591094970703	1307.067504882813	-927.5644531250002	153.4886474609375	1250.485229492188	-893.098327636719	419.5581665039064	1338.377075195313	-887.358581542969	507.6241455078126	1348.0546875	-801.2180786132815	-165.8516235351563	1383.837524414063	-566.3723754882814	-20.57632446289063	1297.221313476563	-451.8442687988282	3.886804342269898	1333.249633789063	-477.2635498046876	48.79048538208009	1302.815551757813	-452.6175537109376	116.8730621337891	1291.769409179688	-458.0869445800782	123.4658889770508	1231.043823242188	-506.8548889160157	389.4195556640626	1315.351684570313	-550.5518188476564	386.173065185547	1329.805541992188	-468.3624267578126	475.5764465332032	1350.025634765625	-537.7947998046876	-275.1141967773438	855.559020996094	-837.1827392578127	-274.2482604980469	875.727966308594	-599.3724365234376	-435.3873596191407	1000.641052246094	-715.5047607421876	-450.4963684082032	970.2687988281252	-741.2671508789064	-451.5187988281251	974.396179199219	-682.9104003906251	-341.4512939453126	599.3252563476564	-934.1246337890627	-311.3009338378907	519.2874755859376	-941.8322753906252	-267.5848083496094	515.0606079101564	-917.7358398437502	-342.8225708007813	466.6719360351564	-940.1031494140627	-362.2948913574219	388.6148681640626	-933.7415161132815	-339.3876953125001	355.4548950195313	-805.5023193359377	-459.6002197265626	303.5301513671876	-894.716247558594	-509.1701660156251	366.7351989746094	-929.3655395507815	-510.6341552734376	323.6878051757813	-919.756286621094	-587.7161865234376	310.8726806640626	-885.6992797851565	-782.1409301757815	369.6156005859376	-863.7427978515627	-756.5057373046876	323.7374877929688	-785.4407958984377	-751.6661987304689	420.9452514648439	-804.4141845703127	-888.8161621093752	251.6016845703126	-766.6917724609376	-918.545349121094	313.0188598632813	-850.351013183594	-304.9277038574219	696.0396118164064	-538.0701904296876	-242.3050994873047	672.9653320312501	-548.4451293945314	-215.5281829833985	690.7117919921876	-553.1213378906251	-224.339096069336	595.3322753906251	-574.2164916992189	-140.5032043457032	462.1834716796876	-620.9696655273439	-127.0135192871094	477.1371154785157	-753.6473999023439	-183.2467346191407	296.4789123535157	-735.3588867187501	-247.7557067871094	235.2287292480469	-668.2517700195314	-225.4306030273438	220.1945037841797	-708.1304321289064	-258.9040832519532	193.5816497802735	-745.4136962890626	-359.4227600097657	115.3287353515625	-701.3515014648439	-329.3546752929688	138.9754333496094	-788.9279785156252	-437.3961791992189	104.4810867309571	-765.8014526367189	-227.5432739257813	59.14949798583986	-776.549499511719	-224.8574981689454	56.71569824218751	-723.8842163085939	-273.7104492187501	27.62113761901856	-672.7842407226564	411.1802673339845	1315.988891601563	-809.5485839843752	-912.205505371094	253.3530731201172	-805.493591308594	
933	4.66	-109.5802917480469	1573.536010742188	-635.9752807617189	-266.1592407226563	1531.042236328125	-715.6582641601564	-92.49053192138673	1580.484985351563	-778.3059082031252	-289.3328247070313	1389.188354492188	-733.6228637695314	-383.5884399414063	1106.058959960938	-722.8742065429689	-142.3801574707032	1314.58984375	-708.9881591796876	-141.9249572753907	1372.749145507813	-859.0564575195315	9.982290267944338	1305.216796875	-961.0042114257815	34.11531829833985	1341.51708984375	-934.0855712890627	78.76261138916017	1303.4970703125	-948.588806152344	152.4898223876953	1306.115112304688	-927.4479980468752	153.9449157714844	1249.718383789063	-893.2780761718752	419.2192993164064	1337.774047851563	-887.191345214844	507.8623046875001	1347.156982421875	-801.1870117187502	-165.676742553711	1382.924194335938	-566.5310668945314	-20.18228912353516	1296.626953125	-451.757781982422	4.457417488098145	1332.42333984375	-477.0588378906251	49.00765228271486	1302.064453125	-452.4961242675782	117.0820999145508	1290.716918945313	-458.0144348144532	123.464714050293	1230.075805664063	-506.6925354003907	389.1319885253907	1314.28759765625	-549.7969970703126	386.4720153808595	1328.833374023438	-468.3258056640626	474.6828002929689	1349.013671875	-538.3704223632814	-275.3468933105469	854.707702636719	-837.0780029296877	-274.4952087402344	875.1535644531252	-599.2542724609376	-435.4551696777345	1000.278381347656	-715.6334228515626	-450.5252685546876	969.6693115234377	-741.2526245117189	-451.3892822265626	973.8920898437502	-682.9732666015626	-341.6042785644532	598.5742797851564	-933.940368652344	-311.5609436035157	518.5582885742189	-941.651550292969	-267.8065185546876	514.3871459960939	-917.694763183594	-342.9894714355469	465.7767944335939	-940.0461425781252	-362.4748535156251	388.0391845703126	-933.6712036132815	-339.4301147460938	354.6699218750001	-805.498962402344	-459.5343017578126	302.8525695800782	-894.8042602539065	-509.2993164062501	365.7219543457032	-929.1458129882815	-510.7852478027345	323.0120849609376	-919.652282714844	-587.8731079101564	310.2762451171876	-885.6662597656252	-782.212829589844	368.8034973144532	-863.2751464843752	-756.5753784179689	322.6782226562501	-785.2219848632815	-751.7484741210939	419.8431396484376	-804.1951904296877	-888.829528808594	250.4169921875001	-766.4433593750001	-918.753112792969	311.9832458496094	-849.9890747070315	-305.0284118652344	695.4238281250001	-537.9554443359376	-242.3562316894532	672.5993652343751	-548.3162231445314	-215.488998413086	690.4829101562501	-553.0340576171876	-224.1942901611329	594.9672851562501	-574.0687866210939	-140.2986450195313	462.0182495117189	-620.6470336914064	-126.6564331054688	477.0214843750001	-753.4463500976564	-182.9217071533203	296.4113464355469	-735.1616210937501	-247.602035522461	235.2508544921876	-668.0756225585939	-225.3241577148438	220.1841430664063	-707.8821411132814	-258.8844604492188	193.5730743408204	-745.2179565429689	-359.3846740722657	115.3304290771485	-701.3125610351564	-329.3366394042969	139.0588073730469	-788.8274536132815	-437.393280029297	104.470199584961	-765.7767333984376	-227.5681152343751	59.09599685668947	-776.5405883789065	-224.8881378173829	56.75476837158205	-723.8341064453126	-273.6916809082032	27.56243515014649	-672.8280639648439	411.5482788085939	1315.275146484375	-809.4956054687502	-912.286315917969	252.2465820312501	-805.223571777344	
